<svg width="1840" height="1135" viewBox="0 0 1840 1135" fill="none" xmlns="http://www.w3.org/2000/svg">
<path fill-rule="evenodd" clip-rule="evenodd" d="M705 1104.17C440.391 1122.18 157.543 908.3 157.543 648C157.543 387.686 576.956 498.624 713.009 292.024C1038.99 -202.649 1697.1 593.367 1465.74 682.21C1002.17 860.1 1339.74 1060.92 705 1104.17V1104.17Z" fill="#F0EFF4"/>
<path d="M1428.02 637.533C1428.16 638.227 1428.52 638.876 1428.67 639.57C1429.83 646.075 1430.58 650.498 1429.81 656.182C1427.96 668.332 1419.46 680.106 1424.37 695.495C1429.66 717.303 1456.37 730.563 1463.56 708.945C1467.68 694.665 1460.67 677.285 1452.82 661.512C1448.45 653.057 1443.42 644.96 1437.78 637.295C1443.96 636.889 1450.04 635.53 1455.8 633.266C1457.01 632.786 1458.01 632.35 1459.22 631.866C1459.57 632.039 1460.13 632.166 1460.48 632.341C1471.07 627.85 1479.76 623.494 1490.53 620.651C1509.06 615.32 1532.53 609.978 1534.28 590.151C1534.47 583.86 1528.7 577.539 1522.67 572.951C1514.53 567.487 1504.58 565.394 1494.92 567.111C1478.28 569.185 1466.79 579.143 1460.57 591.433C1456.73 599.162 1454.97 607.928 1453.77 616.824C1453.5 621.205 1452.47 625.979 1453.56 630.575C1446.49 633.41 1438.67 634.468 1430.37 634.659C1429.97 634.55 1429.54 634.55 1429.14 634.659C1426.17 634.732 1423.2 634.593 1420.25 634.245C1419.57 620.668 1425.11 608.033 1429.95 595.053C1431.54 589.931 1433.69 584.938 1434.24 579.297C1438.5 580.593 1442.91 581.341 1447.35 581.525C1455.57 582.071 1462.56 577.325 1459.43 569.525C1453.83 559.082 1434.42 554.005 1423.89 551.989C1414.93 550.621 1405.82 550.393 1396.8 551.309C1395.56 551.349 1394.33 551.511 1393.12 551.794C1398.4 546.664 1403.47 541.578 1408.42 536.275C1412.83 531.798 1417.01 526.887 1421.3 522.193C1435.35 525.2 1448.14 533.024 1461.15 540.804C1476.95 550.921 1493.47 561.861 1509.65 556.751C1523.26 551.907 1522.55 534.731 1507.07 524.309C1491.37 513.932 1472.54 509.46 1455.88 508.409C1449.11 507.972 1442.32 508.103 1435.57 508.8C1434.9 508.931 1434.11 508.846 1433.22 509.022L1444.83 496.634C1451.39 489.81 1458.08 483.202 1464.64 476.377C1465.43 476.462 1466.44 476.504 1467.46 476.545C1471.75 477.145 1473.55 477.269 1477.97 478.084C1488.96 480.49 1500.11 484.067 1511.08 485.995C1521.6 487.74 1532.29 488.14 1542.91 487.185C1550.62 486.385 1558.78 485.503 1565.16 482.323C1576.71 476.442 1577.83 462.992 1561.38 453.484C1547 446.055 1530.72 443.142 1514.66 445.125C1510.42 445.958 1505.38 446.225 1501.63 447.925L1498.48 444.938L1498.92 444.851C1508.04 439.929 1518.1 436.264 1528.39 432.551C1541.9 427.967 1556.32 423.686 1570.94 418.883C1577.03 422.253 1582.31 425.062 1588.58 430.083C1605.42 443.365 1617.43 464.812 1633.8 480.35C1645.02 491.127 1674.45 510.108 1688.6 507.562C1717.8 502.294 1662.28 460.552 1649.06 450.646C1633.89 439.446 1617.55 430.152 1601.04 421.858C1595.57 419.059 1589.92 416.636 1584.12 414.607C1603.5 408.145 1622.64 401.251 1640.38 393.188C1643.58 391.836 1646.66 390.268 1649.51 388.744L1649.86 388.916C1652.02 389.693 1654.53 390.642 1656.82 391.634C1660.46 392.841 1667.93 396.903 1669.43 397.811C1698.55 414.927 1716.75 444.776 1748.4 460.672C1761.72 467.672 1778.52 472.06 1789.15 465.877C1806.72 450.877 1767.82 422.934 1749.94 411.304C1733 400.929 1714.63 394.204 1696.36 389.381C1687.21 386.832 1677.85 385.053 1668.4 384.062C1665.46 383.686 1662.49 383.548 1659.52 383.647C1681.47 372.143 1701.99 358.093 1720.65 341.786C1721.56 342.086 1722.57 342.129 1723.48 342.431C1728.72 343.907 1733.85 345.707 1738.86 347.821C1751.78 353.215 1761.57 359.221 1773.27 367.745C1787.73 378.125 1802.28 390.413 1819.53 394.715C1825.52 395.7 1832.4 396.509 1836.43 393.551C1839.9 390.464 1840.67 384.779 1837.09 379.712C1832.16 371.784 1823.37 365.812 1815.06 360.238C1807.48 355.161 1799.56 350.613 1791.36 346.624C1781.41 341.603 1770.97 337.614 1760.21 334.718C1751.61 332.287 1742.87 330.394 1734.04 329.048C1737.26 325.527 1740.48 322.007 1743.58 318.27L1743.8 318.226C1757.19 310.779 1772.9 305.28 1781.84 293.419C1785.45 288.379 1788.59 282.95 1788.19 276.054C1788.34 266.163 1774.05 257.431 1763.79 256.325C1753.06 254.825 1745.79 260.831 1743.19 268.558C1740.45 278.238 1742.93 289.294 1742.24 299.533C1742.08 304.356 1741.45 309.151 1740.36 313.852C1740.26 314.079 1740.22 314.326 1740.23 314.574C1740.24 314.823 1740.3 315.065 1740.42 315.283C1736.67 319.629 1732.92 323.975 1728.73 328.408C1725.66 331.625 1722.41 334.674 1719.01 337.539C1720.88 331.158 1720.23 323.828 1716.45 316.639C1714.11 311.568 1708.34 307.893 1702.65 306.127C1689.82 302.641 1686.27 311.758 1691.51 321.55C1695.43 329.437 1704.03 339.05 1703.7 344.65C1703.76 346.185 1703.71 347.722 1703.55 349.25C1703.4 349.506 1703.32 349.795 1703.32 350.09C1703.31 350.385 1703.38 350.678 1703.51 350.941C1694.41 358.083 1684.86 364.624 1674.91 370.523C1678.52 362.837 1681.2 354.372 1678.78 344.748C1676.62 336.033 1667.69 326.726 1657.17 327.355C1647.31 327.855 1640.68 333.247 1635.31 339.114C1624.43 350.156 1622.61 368.552 1618.46 381.878C1616.59 388.259 1613.47 394.165 1610.22 399.854C1609.92 400.636 1608.72 401.593 1608.89 402.764C1583.45 412.101 1557.38 419.878 1530.8 428.48C1519.4 432.409 1508.12 436.554 1497.79 441.955C1502.29 436.74 1506.56 431.568 1510.72 426.181C1516.02 426.82 1520.82 426.116 1523.86 423.593C1527.22 420.766 1525.75 415.044 1521.44 411.322C1523.65 407.76 1526.08 404.155 1528.17 400.376C1539.78 406.989 1550.98 411.519 1559.81 407.857C1567.28 403.98 1561.56 393.321 1553.71 388.133C1550.4 385.872 1546.9 383.905 1543.24 382.255C1547.1 379.345 1551.2 376.769 1555.5 374.555C1574.62 364.537 1597.4 358.855 1613.81 345.755C1622.07 339.317 1631.33 332.443 1633.58 321.897C1634.32 317.905 1634.56 313.046 1631.02 308.933C1617.57 295.948 1599.28 304.359 1588.93 309.283C1580.03 313.698 1572.42 320.333 1566.83 328.547C1561.32 336.366 1557.77 345.484 1553.53 354.255C1551.73 357.875 1549.74 361.398 1547.57 364.809C1548.1 363.984 1548.5 362.942 1549.03 362.116C1552.94 353.649 1556.17 344.836 1559.39 336.024C1559.84 335.936 1559.94 335.675 1560.39 335.588C1560.57 335.466 1560.72 335.305 1560.83 335.117C1560.93 334.929 1561 334.719 1561.02 334.502C1560.95 334.021 1560.78 333.561 1560.51 333.158C1560.61 332.898 1560.71 332.637 1560.94 332.593C1561.24 332.658 1561.56 332.616 1561.84 332.473C1562.12 332.331 1562.35 332.096 1562.47 331.809C1568.27 317.438 1586.41 291.98 1572.28 273.357C1570.37 271.627 1567.89 270.659 1565.31 270.639C1558.57 270.523 1555.07 275.302 1552.9 279.818C1547.99 291.368 1547.65 304.903 1551.05 318.907C1551.92 322.838 1553.02 326.717 1554.34 330.525C1554.82 331.392 1554.86 332.346 1555.57 333.169C1553.36 334.084 1551.28 335.217 1549.07 336.132C1546.92 329.288 1545.39 322.265 1544.49 315.147C1543.2 305.78 1541.79 290.904 1530.7 283.466C1529 282.503 1527 282.226 1525.1 282.69C1523.2 283.155 1521.54 284.326 1520.48 285.966C1515.82 292.656 1518.02 302.325 1521.41 311.036C1524.42 318.609 1528.41 325.749 1533.3 332.267C1535.33 335.07 1537.62 337.679 1540.14 340.06L1540.26 340.277C1536.86 342.15 1533.46 344.022 1530.4 346.067C1518.81 353.64 1508.98 363.031 1499.26 372.161C1498.29 373.074 1497.42 373.727 1496.44 374.64C1495.13 372.734 1494.04 370.784 1492.94 368.834C1489.4 362.458 1486.35 355.823 1483.81 348.986C1479.41 337.586 1473.22 318.6 1458.45 309.002C1453.71 305.845 1448.49 307.114 1446.48 310.155C1443.22 315.367 1446.57 323.125 1449.2 329.583C1453.93 340.678 1461.45 351.463 1469.85 361.596C1474.8 367.355 1479.64 372.896 1485.14 378.307C1486.42 379.259 1487.49 380.732 1488.87 381.423C1482.38 387.51 1475.68 393.64 1468.97 399.771C1462.97 387.725 1459.15 376.931 1454.36 364.405C1449.73 353.05 1444.96 341.005 1434.79 331.219C1426.51 323.949 1417.26 325.53 1414.86 332.736C1410.42 344.675 1416.02 360.409 1423.54 373.836C1428.46 382.023 1434.36 389.584 1441.09 396.355C1445.12 400.478 1449.37 404.379 1453.82 408.04C1454.98 408.775 1456.03 409.771 1457.18 410.506C1454.04 413.289 1450.8 416.332 1447.66 419.115L1438.24 427.464C1438.02 427.508 1437.79 427.552 1437.91 427.764C1437.69 427.808 1437.81 428.025 1437.81 428.025C1435.42 429.939 1432.93 432.113 1430.54 434.025L1430.32 434.068C1422.29 416.647 1412.69 399.056 1398.1 383.168C1391.39 375.591 1383.88 367.929 1374.67 362.526C1364.43 356.605 1348.73 351.52 1347.3 363.105C1346.77 374.515 1355.4 385.081 1365.88 394.081C1358.88 390.409 1351.37 388.039 1344.29 387.751C1340.08 387.536 1335.95 388.939 1332.74 391.672C1329.54 394.406 1327.5 398.262 1327.05 402.451C1326.39 418.937 1343.24 435.341 1355.19 450.065C1361.69 457.685 1367.65 466.132 1367.61 473.116C1367.51 475.306 1367.14 477.477 1366.53 479.582C1366.23 480.363 1365.58 480.972 1366.06 481.838C1366.2 482.123 1366.39 482.375 1366.63 482.576C1366.88 482.778 1367.16 482.925 1367.46 483.006C1366.91 483.539 1366.41 484.121 1365.96 484.745C1361.55 486.576 1357.84 489.23 1357.25 493.916C1357.31 494.414 1357.25 494.917 1357.09 495.391C1356.84 495.898 1356.52 496.366 1356.13 496.782C1354.08 499.616 1352.18 502.559 1350.44 505.6C1351.3 493.886 1352.6 482.084 1347.69 469.341C1339.95 448.015 1318.06 426.589 1311.62 406.692C1308.37 396.028 1309.36 387.653 1308.5 377.722C1309.63 377.979 1310.63 377.544 1310.81 376.545C1311.38 374.028 1311.85 371.772 1312.54 369.471C1314.65 360.877 1316.39 354.28 1319.07 345.816C1320.55 340.954 1322.26 336.049 1323.96 331.143L1324.19 331.099C1327.32 330.48 1330.49 330.097 1333.69 329.951C1339.72 329.244 1354.22 329.517 1361.12 330.804C1375.45 332.552 1393.4 340.322 1403.75 332.752C1411.47 326.662 1404.98 313.752 1394.82 307.091C1382.9 298.614 1368.02 294.568 1355.62 295.809C1346.44 296.653 1339.56 301.135 1333.12 305.53C1331.97 306.275 1330.8 306.986 1329.62 307.663C1330.94 301.631 1332.03 295.642 1333.52 290.781C1337.52 276.281 1343.92 262.996 1349.64 249.363C1350.77 249.621 1351.77 249.185 1352.78 249.226C1355.47 249.177 1358.16 249.126 1360.76 249.339C1368.58 249.951 1376.33 251.241 1383.94 253.194C1393.13 255.473 1402.48 258.924 1411.73 259.994C1424.83 261.744 1437.76 259.678 1445.2 252.201C1452.07 244.595 1443.17 233.118 1432.26 227.329C1421.11 221.106 1408.76 218.486 1397.4 218.077C1380.76 217.505 1371.04 223.989 1364.9 235.541C1363.21 238.277 1359.1 241.973 1355.76 242.631C1354.57 243.067 1353.34 243.39 1352.09 243.593C1353.13 241.466 1353.82 239.165 1354.73 236.821C1359.86 222.581 1360.95 208.177 1369.74 195.621C1374.42 189.408 1384.41 181.188 1389.36 173.239C1391.79 169.634 1394.22 166.028 1396.31 162.25C1411.7 159.701 1431.15 163.086 1448.24 160.924C1454.6 159.913 1460.92 157.948 1464.32 153.424C1471.23 144.124 1464.74 133.859 1450.27 128.771C1434.87 122.905 1422.21 129.005 1412.24 135.055C1409.04 137.206 1406.17 139.798 1403.69 142.755C1404.51 139.773 1405.51 136.844 1406.69 133.986C1409.15 128.211 1412.15 124.734 1417.25 120.603C1422.94 116.74 1428.28 112.39 1433.21 107.603C1436.99 105.493 1440.64 103.168 1444.15 100.639C1448.73 97.333 1453.31 94.026 1455.8 89.206C1459.35 82.735 1461.06 72.537 1451.77 65.226C1446.65 60.943 1438.96 59.571 1434.1 61.49C1422.45 67.631 1421.08 85.94 1424.33 99.25C1425.12 101.983 1425.91 104.715 1426.69 107.444L1426.82 107.66C1424.65 109.53 1422.48 111.4 1420.19 113.053C1416.13 115.683 1412.38 118.761 1409.01 122.23C1408.81 114.813 1411.63 107.042 1411.07 98.975C1410.66 86.309 1401.19 72.058 1387.47 63.454C1370.33 53.601 1356.72 61.091 1360.39 76.482C1361.93 83.637 1366.37 90.698 1370.7 97.543C1375.84 104.949 1381.32 112.529 1388.12 119.368C1391.52 122.788 1395.24 125.903 1399.08 129.235C1400.24 130.223 1401.48 131.106 1402.79 131.874C1400.41 136.911 1399.19 142.682 1397.51 148.065C1394.82 156.078 1390.85 163.602 1385.75 170.343C1381.23 177.727 1371.34 185.687 1365.39 193.594C1364.25 195.128 1363.26 196.772 1362.45 198.503C1362.22 198.026 1361.89 197.6 1361.5 197.247C1358.93 186.928 1358.96 176.821 1357.75 166.716C1355.86 148.327 1348.33 129.127 1325.84 117.679C1315.74 112.452 1302.61 109.747 1295.9 115.879C1288.34 123.139 1289.57 136.367 1296.42 147.279C1306.07 163.179 1323.01 176.199 1339.84 186.834C1346.64 191.028 1352.79 193.184 1357.24 197.599L1357.48 198.032C1357.81 199.422 1358.24 200.785 1358.78 202.107C1358.94 202.365 1359.16 202.581 1359.42 202.738C1359.68 202.896 1359.97 202.991 1360.28 203.015C1355.88 213.261 1354.01 224.934 1350.38 234.789C1344.92 249.333 1338.09 263.189 1332.63 277.728C1332 276.168 1331.22 273.437 1330.59 271.877C1328.07 264.072 1326.01 256.125 1324.43 248.077C1319.97 227.308 1313.73 201.597 1287.91 188.162C1254.13 172.444 1226.97 191.502 1248.91 222.297C1260.95 238.929 1279.97 250.818 1298.91 260.797C1308.46 266.372 1318.87 270.818 1325.42 277.224C1326.51 278.618 1327.44 280.129 1328.19 281.73C1328.68 282.596 1328.59 283.33 1329.41 283.896L1330.44 284.414C1330.05 285.934 1329.44 287.496 1329.06 289.014C1325.89 299.258 1324.23 310.414 1321.75 320.999C1321.15 323.615 1320.36 326.184 1319.37 328.682C1319.15 328.726 1319.27 328.943 1319.17 329.203C1318.56 330.766 1318.18 332.285 1317.57 333.848C1306.73 321.548 1300.81 306.122 1290.25 292.567C1279.87 280.659 1263.75 268.201 1248.02 267.931C1224.9 268.153 1240.62 298.008 1253.37 310.17C1263.79 320.385 1277.13 327.861 1290.81 332.864C1292.39 338.327 1294.41 343.701 1296.55 349.293C1295.01 347.431 1293.25 345.612 1291.71 343.75C1287.36 339.075 1276.95 326.213 1270.55 328.917C1264.53 332.747 1274.34 344.525 1280.35 348.633C1286.05 352.894 1292.46 356.11 1299.27 358.133L1299.5 358.089C1301.11 362.955 1302.26 367.964 1302.93 373.048C1303.43 377.063 1303.71 381.102 1303.77 385.148C1303.3 384.759 1302.72 384.148 1302.25 383.764C1300.03 381.556 1298.02 379.305 1296.02 377.053C1291.43 371.944 1287.28 366.753 1281.5 362.596C1270.71 354.377 1261.25 359.125 1268.55 369.954C1274.18 378.227 1284.78 382.154 1293.87 384.692C1295.69 385.292 1300.25 386.804 1302.35 388.792L1302.47 389.009C1302.94 389.398 1303.18 389.832 1303.64 390.221C1304.14 399.503 1305.55 409.087 1311.46 418.748C1322.62 438.678 1340.73 458.203 1344.68 477.629C1347.18 491.808 1343.73 505.957 1344.47 520.964C1344.74 538.229 1348.75 556.439 1349.59 573.832C1349.93 576.651 1350.28 579.47 1350.72 582.032C1344.71 575.277 1338.38 568.827 1331.72 562.682C1317.96 550.482 1303.98 538.318 1290.99 525.723C1291.06 524.519 1291.31 523.334 1291.74 522.208C1292.95 517.844 1294.78 513.676 1297.18 509.833C1303.18 500.233 1317.13 490.27 1319.72 476.774C1323.82 459.374 1301.84 446.62 1285.6 452.945C1271.4 459.829 1271.49 478.091 1272.9 492.967C1273.64 499.068 1274.86 505.1 1276.57 511.005L1274.81 509.187C1265.64 499.446 1256.91 489.141 1247.84 479.139C1247.8 478.185 1246.85 476.929 1246.47 475.802C1245.19 473.548 1244.11 471.184 1243.25 468.738C1240.12 460.938 1237.46 448.232 1237.59 440.511C1237.32 423.246 1247.89 410.34 1243.51 391.48C1241.35 380.119 1228 364.228 1215.49 371.022C1211.54 373.242 1209.69 377.454 1208.05 381.145C1205.39 387.445 1204.46 394.6 1204.65 402.017C1205.06 412.789 1207.32 423.41 1211.35 433.409C1213.82 439.759 1216.7 445.94 1219.98 451.909C1203.69 438.28 1185.91 426.389 1169.76 413.453C1169.87 413.185 1169.91 412.894 1169.87 412.606C1169.84 412.319 1169.74 412.044 1169.58 411.805C1169.26 410.422 1169.05 409.015 1168.95 407.598C1168.67 403.565 1169.25 395.755 1171.21 391.76C1178.47 377.343 1186.74 362.967 1185.88 345.097C1185.35 324.276 1179.4 289.369 1150.36 276.807C1130.48 268.695 1121.46 283.94 1121.37 297.907C1119.92 322.245 1133.36 348.461 1144.4 373.467C1148.87 383.652 1152.24 391.886 1155.78 401.292C1151.6 397.403 1147.64 393.284 1143.92 388.954C1133.65 376.787 1126.41 364.743 1117.75 351.054C1110.27 338.577 1101.9 326.275 1094.42 313.798C1092.96 311.198 1091.61 308.338 1090.15 305.738C1090.29 305.594 1090.41 305.42 1090.48 305.228C1090.54 305.036 1090.57 304.831 1090.55 304.628C1090.53 304.425 1090.47 304.228 1090.36 304.053C1090.26 303.877 1090.12 303.727 1089.95 303.613C1079.37 292.227 1072.86 281.483 1063.37 269.4C1048.91 251.082 1032.08 232.508 1010.77 219.627C1001.32 213.791 991.056 212.685 987.571 220.587C985.482 227.012 989.181 234.942 992.739 242.179C996.5 248.895 1000.6 255.779 1006.03 261.931C1014.87 271.976 1025.67 280.673 1036.9 288.804C1049.87 297.959 1063.62 305.956 1077.98 312.704L1092.07 319.311C1092.42 319.486 1092.81 319.574 1093.2 319.569C1098.04 327.757 1103.66 336.03 1108.71 344.175C1107.26 343.905 1105.82 343.545 1104.4 343.099C1097.44 341.362 1090.68 338.905 1084.22 335.768C1060.97 324.713 1039.28 308.058 1013.81 300.568C1008.93 299.368 1003.85 298.681 1000.11 300.381C997.996 301.459 996.355 303.276 995.495 305.484C994.635 307.693 994.616 310.141 995.442 312.363C998.775 322.29 1009.34 330.553 1019.25 336.778C1042.3 351.001 1068.98 360.661 1093.09 360.002C1101.17 359.854 1109.11 359.013 1115.85 356.483L1116.07 356.439C1123.42 368.223 1130.97 379.962 1140.3 390.874C1148.33 400.357 1158 408.795 1167.98 416.452C1169.52 417.729 1171.1 418.941 1172.74 420.085C1161.18 417.551 1150.44 412.932 1138.31 407.622C1125.84 402.14 1113.39 397.134 1100.52 392.694C1085.16 387.781 1068.28 381.484 1054 383.813C1045.31 385.524 1043.53 393.813 1049.7 401.738C1055.3 409.538 1064.63 415.154 1073.05 420.471C1087.28 428.86 1102.72 434.988 1118.83 438.636C1135.04 442.419 1151.18 444.293 1166.52 443.436C1177.05 442.807 1187.91 441.873 1197.2 438.599C1197.42 438.555 1197.3 438.339 1197.3 438.339C1209.83 447.899 1222.13 457.503 1232.67 467.939C1239.12 474.606 1245.35 481.316 1251.36 488.07C1235.47 487.148 1219.71 484.608 1204.34 480.492C1182.58 475.637 1155.57 466.281 1140.93 478.545C1131.89 485.375 1135.49 498.858 1147.43 507.812C1158.9 516.376 1172.85 519.643 1185.58 520.744C1205.32 522.871 1221.68 516.763 1235.96 509.144C1242.12 506.008 1249.92 501.827 1255.24 500.297C1256.75 499.761 1258.32 499.451 1259.92 499.377L1261.26 499.113C1265.26 503.613 1269.61 508.292 1273.84 512.751C1275.48 514.351 1276.89 515.998 1278.41 517.383L1278.65 517.816C1278.9 518.249 1279.24 518.422 1279.93 518.768L1286.6 525.39C1286.58 525.637 1286.61 525.887 1286.7 526.12C1286.78 526.354 1286.92 526.563 1287.1 526.734C1287.61 527.143 1288.2 527.437 1288.82 527.598C1299.59 537.986 1310.9 548.026 1322.43 558.022C1332.3 566.542 1341.57 575.725 1350.19 585.508C1350.65 585.897 1351.02 586.547 1351.6 587.153C1351.7 587.714 1351.69 588.289 1351.56 588.845C1350.16 603.554 1352.59 618.945 1355.15 634.559C1345.78 641.216 1329.3 639.169 1316.54 642.883C1307.67 645.592 1300.54 652.283 1301.04 661.569C1301.36 671.849 1309.47 683.241 1320.96 689.636C1336.73 698.799 1351.9 691.002 1354.66 679.153C1357.22 670.472 1357.85 661.448 1358.59 652.163C1360.93 662.526 1363.17 673.149 1364.15 683.297C1365.73 694.052 1364.15 704.943 1364.41 716.438C1364.71 718.303 1364.23 720.082 1364.98 721.859C1366.17 723.549 1369.19 723.195 1368.88 721.331C1368.16 714.738 1369.02 705.671 1369.14 697.949C1368.99 690.336 1368.45 682.736 1367.52 675.178C1366.01 663.209 1362.58 650.897 1360.16 638.626L1360.4 636.413C1360.43 636.294 1360.44 636.17 1360.41 636.049C1360.39 635.928 1360.34 635.815 1360.26 635.719C1362.26 635.324 1362.25 634.847 1363.58 634.584C1371.01 632.4 1378.75 632.084 1386.97 632.626C1386.67 633.407 1386.92 634.318 1386.5 634.882C1386.23 636.618 1385.83 637.66 1385.65 638.658C1383.78 645.039 1380.76 650.685 1377.86 656.547C1372.47 667.23 1366.38 680.213 1375.4 694.547C1390.47 719.241 1419.38 715.232 1413.2 690.953C1410.28 677.338 1398.89 662.744 1394.56 650.607C1393.11 645.361 1392.75 642.065 1394.01 637.247C1394.22 635.992 1394.62 634.777 1395.21 633.647C1402.43 634.63 1409.56 635.872 1417.01 636.811C1420.66 637.287 1424.34 637.528 1428.02 637.533V637.533ZM1297.53 340.926C1296.64 338.456 1295.97 335.941 1295.2 333.687C1297.02 334.287 1299.07 334.85 1300.77 335.237C1304.98 336.573 1307.81 337.217 1311.17 339.683L1311.29 339.899L1311.63 340.072C1312.57 340.851 1313.17 341.934 1314.2 342.452C1314.1 342.713 1314.22 342.93 1314 342.973C1311.12 351.581 1308.67 360.332 1306.68 369.19C1306.58 369.45 1306.7 369.667 1306.48 369.711C1305.19 360.344 1301.18 350.549 1297.53 340.926V340.926ZM1379.84 567.405C1382.29 566.923 1391.63 567.25 1393.89 567.766C1396.07 568.088 1398.23 568.547 1400.35 569.14C1397.08 574.579 1395.18 580.731 1394.81 587.067C1392.45 584.724 1389.76 582.742 1386.82 581.185C1381.41 577.924 1375.46 575.673 1369.25 574.542L1369.13 574.325C1370.95 572.283 1372.78 570.24 1374.72 568.414L1374.94 568.37C1376.52 567.819 1378.17 567.494 1379.84 567.405V567.405ZM1446.24 487.705C1444.64 478.084 1441.88 468.694 1438 459.743C1435.48 453.824 1432.65 448.039 1429.53 442.41C1428.98 441.362 1428.33 440.362 1427.61 439.421L1431.2 436.55C1439.68 440.65 1447.18 445.669 1455.64 451.941C1460.28 455.358 1465.28 459.425 1470.6 463.187C1462.64 471.492 1454.33 479.621 1446.25 487.707L1446.24 487.705ZM1528.54 350.279C1534.85 345.843 1541.52 341.954 1548.49 338.654C1549.93 338.131 1551.03 337.434 1552.46 336.911C1549.93 343.423 1547.51 350.152 1544.64 356.491C1541.76 362.83 1538.53 368.997 1535.31 375.164C1535.13 375.286 1534.98 375.447 1534.87 375.635C1534.76 375.823 1534.7 376.033 1534.68 376.25C1534.48 376.771 1534.15 377.075 1533.95 377.596C1526.74 375.449 1519.3 374.169 1511.78 373.783C1508.18 373.53 1504.8 373.234 1501.32 373.198C1510.41 365.155 1519.29 357.155 1528.54 350.281V350.279ZM1494.19 379.9C1502.4 383.093 1512.7 390.445 1523.41 396.756C1521.2 400.317 1519.21 403.835 1516.88 407.18C1512.93 405.015 1508.66 403.5 1504.23 402.696C1493.49 400.607 1482.49 400.177 1471.62 401.421C1479.07 394.416 1486.85 387.112 1494.19 379.9V379.9ZM1457.44 414.074C1458.23 413.409 1458.99 412.698 1459.7 411.944C1461.18 412.375 1462.86 412.284 1464.34 412.715C1470.01 414.004 1475.92 415.727 1481.61 417.493C1487.86 419.388 1496.52 422.493 1504.56 424.038C1500.41 429.426 1495.91 434.638 1491.41 439.856C1485.74 435.92 1479.35 433.331 1472.97 431.219C1467.16 429.206 1461.16 427.808 1455.06 427.05C1451.11 426.624 1447.28 426.416 1443.46 426.207C1448.34 422.116 1453 418.07 1457.44 414.069V414.074ZM1379.54 465.731C1383.33 459.693 1387.1 453.178 1389.17 446.277C1391.23 449.959 1393.29 453.642 1395.7 457.498C1388.55 462.546 1381.69 467.992 1375.16 473.809C1376.61 471.113 1378.07 468.419 1379.53 465.726L1379.54 465.731ZM1373 481.443C1380.86 473.998 1389.24 467.123 1398.08 460.871C1405.34 471.641 1413.62 481.69 1422.8 490.88C1425.96 493.867 1429.46 497.026 1432.71 499.752C1433.11 500.109 1433.53 500.428 1433.99 500.703C1428.72 506.31 1423.57 512.134 1418.43 517.958C1418.2 517.884 1417.96 517.869 1417.73 517.915C1417.49 517.961 1417.27 518.066 1417.09 518.221C1416.93 518.294 1416.79 518.401 1416.67 518.535C1416.56 518.669 1416.48 518.827 1416.43 518.997C1416.38 519.167 1416.38 519.345 1416.41 519.518C1416.44 519.692 1416.5 519.857 1416.6 520.001C1413.7 523.217 1411.03 526.389 1408.01 529.389C1405.83 520.197 1404.1 510.918 1399.67 501.689C1394.13 490.03 1384.97 480.29 1373 481.443V481.443ZM1353.92 573.23C1352.76 553.495 1348.26 534.418 1348.72 515.807C1348.78 514.593 1348.72 513.161 1348.79 511.947C1351.15 512.202 1351.46 508.774 1352.64 507.34C1353.99 504.908 1355.47 502.693 1356.95 500.477C1358.99 506.329 1363.18 512.477 1367.77 517.589C1374.12 524.516 1383.13 527.789 1391.17 531.984C1392.71 532.864 1394.17 533.861 1395.56 534.968C1395.68 535.184 1396.14 535.574 1396.27 535.79C1396.61 535.963 1397.22 537.046 1397.56 537.219C1398.02 537.813 1398.38 538.47 1398.65 539.169C1390.47 547.515 1381.59 555.516 1373.19 563.906C1373.93 557.754 1373.93 551.536 1373.2 545.383C1372.57 541.176 1371.59 536.32 1368.05 532.207C1365.46 529.349 1360.6 528.622 1358.55 530.707C1356.38 532.577 1356.4 535.7 1356.3 538.607C1356.64 544.072 1358.34 549.752 1360.36 555.126C1362.06 559.64 1363.42 564.278 1364.42 568.999C1364.69 570.152 1364.85 571.328 1364.9 572.511C1361.58 576.292 1358.38 580.29 1355.3 584.504C1354.91 580.732 1354.31 577 1353.93 573.23H1353.92ZM1363.18 630.817C1361.66 631.152 1360.18 631.605 1358.74 632.171L1358.52 632.215C1356.86 622.198 1355.5 610.923 1354.94 602.855C1354.77 601.254 1354.78 599.64 1354.96 598.04C1355.08 598.244 1355.25 598.417 1355.45 598.544C1355.65 598.672 1355.88 598.751 1356.11 598.775C1357.93 599.375 1359.23 598.161 1358.26 596.428C1357.88 595.301 1357.72 594.128 1357.33 593.003C1358.22 592.828 1358.87 592.219 1358.61 591.309C1358.83 591.265 1358.83 591.265 1359.17 591.438C1361.4 591.56 1363.6 591.934 1365.73 592.552C1369.94 593.887 1377.51 597.689 1383.42 599.411C1387.41 600.791 1391.92 601.345 1395.14 600.471C1395.45 603.212 1395.97 605.924 1396.72 608.579C1398.95 616.725 1402.65 624.392 1407.65 631.2C1407.9 631.633 1408.36 632.022 1408.6 632.455C1394.13 630.014 1376.28 627.275 1363.18 630.817H1363.18Z" fill="#DAD8E4"/>
<path fill-rule="evenodd" clip-rule="evenodd" d="M479.984 368.263C388.757 389.809 251.729 468.115 220.16 323.1C198.533 223.739 455.36 232.223 508.7 177.17C626.038 56.064 806.643 165.628 729.415 204.56C574.669 282.532 698.824 316.567 479.984 368.263Z" fill="#F0EFF4"/>
<path fill-rule="evenodd" clip-rule="evenodd" d="M1176.72 530.2C1142.32 581.742 795.875 610.006 750.844 546.671C681.244 448.871 881.688 169.371 881.688 169.371C879.102 156.012 878.62 123.718 889.144 111.116C905.086 91.961 881.371 73.769 896.124 69.637C915.084 64.346 930.277 82.257 963.307 91.214C982.876 96.466 980.144 147.833 961.643 176.584C955.058 186.784 942.479 187.716 942.479 187.716C942.479 187.716 865.158 377.977 881.579 414.416C901.948 459.488 998.919 407.594 1147.92 386.562C1219.17 376.491 1195.67 501.79 1176.72 530.2V530.2Z" fill="#FFC197"/>
<path fill-rule="evenodd" clip-rule="evenodd" d="M985.05 390.951C998.092 400.951 1001.17 424.635 1003.38 439.451C1005.73 455.109 1005.02 471.183 999.784 486.277C991.917 508.998 975.596 527.577 968.89 550.709C963.909 567.92 965.1 587.316 970.936 604.209C973.656 612.108 977.772 619.454 983.089 625.897C1014.61 663.884 1079.51 649.704 1119.31 636.348C1164.1 621.315 1208.34 592.674 1231.45 550.199C1267.3 484.346 1234.78 403.111 1173.01 366.593C1148.51 352.278 1120.92 344.084 1092.57 342.707C1058.91 340.94 1024.35 347.326 995.268 364.741L985.05 390.951Z" fill="#FE9400"/>
<path fill-rule="evenodd" clip-rule="evenodd" d="M854.013 181.661C831.634 223.89 802.766 316.228 787.708 361.294C768.49 419.156 760.836 463.016 790.37 514.829C825.312 576.301 941.95 552.275 999.021 536.484C1011.61 532.991 1024.05 528.949 1036.29 524.371C1053.56 518.056 1070.33 510.453 1086.46 501.626C1119.74 483.026 1147.52 457.467 1172.4 428.806C1179.55 420.587 1185.96 411.606 1193.53 403.789C1195.78 401.452 1199.19 398.007 1202.85 398.432C1209 399.139 1210.42 410.495 1211.25 414.913C1214.41 433.213 1214.16 452.334 1212.91 470.794C1208 543.756 1184.29 616.642 1119.07 656.494C1078.8 681.112 1028.64 688.765 982.713 695.504C936.873 702.226 888.62 708.304 842.198 704.073C759.336 696.519 671.898 660.513 626.559 587.027C574.148 501.9 598.274 388.133 641.286 304.4C652.018 283.526 664.414 263.451 679.14 245.157C707.84 209.508 746.277 177.057 791.618 166.172L854.013 181.661Z" fill="black" fill-opacity="0.1"/>
<path fill-rule="evenodd" clip-rule="evenodd" d="M433.742 79.939C429.659 73.513 421.9 68.9 413 67.6C404.232 66.191 395.259 68.211 387.941 73.241L10.248 345.111C0.456997 352.159 -2.239 363.605 3.705 372.962L479.025 1121.16C483.167 1127.68 490.862 1132.2 499.825 1133.6C508.593 1135.01 517.566 1132.99 524.884 1127.96L902.575 856.085C912.366 849.037 915.062 837.591 909.117 828.234L433.742 79.939ZM428.066 82.239L903.445 830.539C908.069 837.817 905.983 846.757 898.28 852.302L520.59 1124.17C514.855 1128.09 507.847 1129.69 500.979 1128.65C493.946 1127.65 487.943 1123.98 484.701 1118.88L9.382 370.666C4.698 363.294 6.782 354.354 14.482 348.809L392.171 76.939C397.906 73.0182 404.914 71.4196 411.782 72.466C418.881 73.557 424.824 77.131 428.066 82.234V82.239Z" fill="#77536F"/>
<path fill-rule="evenodd" clip-rule="evenodd" d="M506.834 73.112C506.144 72.0078 505.23 71.0602 504.152 70.33C503.074 69.5998 501.855 69.1032 500.573 68.872C499.314 68.633 498.021 68.6467 496.768 68.9122C495.514 69.1778 494.326 69.69 493.273 70.419L90.739 360.17C88.7681 361.601 87.4194 363.732 86.9696 366.126C86.5198 368.52 87.003 370.995 88.32 373.044L558.989 1113.93C559.671 1115.02 560.576 1115.95 561.645 1116.67C562.713 1117.38 563.921 1117.86 565.189 1118.08C566.447 1118.34 567.747 1118.34 569.005 1118.08C570.263 1117.81 571.451 1117.28 572.494 1116.53L975.023 826.78C976.997 825.375 978.356 823.264 978.817 820.885C979.278 818.506 978.807 816.041 977.5 814L506.834 73.112Z" fill="#A9A5C6"/>
<path fill-rule="evenodd" clip-rule="evenodd" d="M812.1 655.719C805.4 645.177 792.944 637.694 778.339 635.548C763.734 633.402 748.744 636.77 737.707 644.714L527.394 796.1C500.594 815.389 493.371 846.524 509.663 872.168C516.363 882.71 528.813 890.183 543.417 892.328C558.021 894.473 573.012 891.107 583.998 883.2L794.361 731.774C821.106 712.525 828.39 681.363 812.1 655.719V655.719ZM807.564 657.528L807.57 657.538C822.824 681.548 816.002 710.73 790.952 728.762L580.587 880.187C570.787 887.245 557.369 890.27 544.329 888.351C531.342 886.394 520.172 879.763 514.192 870.351C498.939 846.342 505.76 817.16 530.811 799.127L741.175 647.7C750.975 640.643 764.393 637.617 777.375 639.564C790.413 641.485 801.584 648.116 807.563 657.528H807.564Z" fill="white"/>
<path fill-rule="evenodd" clip-rule="evenodd" d="M981.28 588.52C977.051 581.867 971.507 576.148 964.988 571.713C958.47 567.279 951.114 564.222 943.373 562.732C935.631 561.241 927.667 561.348 919.968 563.044C912.269 564.741 904.998 567.993 898.6 572.6L629.465 766.326C615.873 776.105 606.536 790.712 603.368 807.154C600.201 823.596 603.442 840.627 612.429 854.756C616.656 861.412 622.198 867.135 628.716 871.572C635.235 876.009 642.591 879.067 650.334 880.558C658.077 882.049 666.042 881.942 673.742 880.243C681.442 878.544 688.713 875.29 695.11 870.679L964.244 676.95C977.824 667.165 987.152 652.561 990.321 636.125C993.489 619.689 990.258 602.664 981.288 588.532L981.28 588.52Z" fill="#77536F"/>
<path fill-rule="evenodd" clip-rule="evenodd" d="M670.226 439.607C668.518 436.919 666.278 434.608 663.644 432.816C661.011 431.025 658.039 429.791 654.911 429.19C651.783 428.59 648.565 428.635 645.455 429.323C642.345 430.011 639.409 431.328 636.826 433.192L373.708 622.592C368.25 626.515 364.5 632.377 363.226 638.977C361.952 645.576 363.25 652.413 366.855 658.086C368.561 660.769 370.796 663.076 373.424 664.865C376.052 666.655 379.018 667.889 382.139 668.492C385.261 669.096 388.473 669.056 391.578 668.375C394.684 667.694 397.618 666.387 400.201 664.533L663.373 475.1C668.831 471.178 672.582 465.318 673.856 458.719C675.131 452.12 673.833 445.284 670.229 439.612L670.226 439.607ZM726.212 527.712C724.504 525.024 722.264 522.713 719.63 520.921C716.997 519.13 714.025 517.896 710.897 517.295C707.769 516.694 704.551 516.739 701.441 517.427C698.331 518.115 695.395 519.432 692.812 521.296L429.693 710.7C424.235 714.623 420.485 720.485 419.211 727.085C417.937 733.684 419.235 740.521 422.84 746.194C424.546 748.877 426.781 751.184 429.409 752.973C432.037 754.763 435.003 755.997 438.124 756.601C441.246 757.204 444.458 757.164 447.563 756.484C450.669 755.803 453.603 754.496 456.186 752.642L719.356 563.206C724.814 559.284 728.565 553.423 729.84 546.825C731.114 540.226 729.816 533.389 726.212 527.717V527.712Z" fill="white"/>
<path d="M699.756 799.47L707.105 793.406C707.795 794.101 708.63 794.636 709.55 794.972C710.47 795.308 711.453 795.438 712.429 795.351C714.819 794.979 717.069 793.982 718.951 792.462C721.018 791.142 722.744 789.351 723.988 787.237C724.776 785.586 724.865 784.232 724.235 783.237C724.034 782.919 723.759 782.655 723.433 782.467C723.107 782.28 722.741 782.174 722.365 782.159C721.119 782.192 719.895 782.492 718.776 783.04C717.746 783.472 715.384 784.605 711.708 786.374C707.028 788.71 703.497 789.962 701.092 790.095C697.748 790.335 695.422 789.379 694.05 787.22C693.149 785.682 692.862 783.861 693.244 782.12C693.76 779.805 694.833 777.652 696.37 775.846C698.436 773.386 700.824 771.215 703.47 769.393C708.391 765.851 712.565 763.931 715.99 763.632C719.415 763.332 721.958 764.443 723.654 766.832L715.962 772.732C715.433 772.194 714.787 771.786 714.075 771.538C713.362 771.29 712.602 771.21 711.854 771.304C709.807 771.744 707.892 772.662 706.268 773.984C704.351 775.235 702.733 776.893 701.529 778.839C701.246 779.2 701.076 779.637 701.04 780.095C701.004 780.552 701.105 781.01 701.329 781.411C701.586 781.746 701.933 782 702.329 782.144C702.725 782.288 703.154 782.316 703.566 782.225C704.942 782.06 707.746 780.97 711.952 778.825C715.096 777.163 718.374 775.77 721.752 774.659C723.712 774.034 725.799 773.916 727.817 774.317C729.615 774.776 731.157 775.929 732.106 777.524C733.131 779.25 733.459 781.301 733.024 783.26C732.516 785.788 731.352 788.138 729.649 790.074C727.369 792.775 724.735 795.157 721.819 797.154C716.858 800.726 712.581 802.67 708.926 802.98C707.228 803.175 705.508 802.958 703.911 802.347C702.315 801.736 700.89 800.749 699.756 799.47V799.47ZM729.515 758.341L726.457 753.527L733.94 748.141L736.998 752.955L729.515 758.341ZM743.728 780.714L731.2 761L738.683 755.614L751.209 775.331L743.728 780.714ZM759.015 771.567L768.028 766.167C768.246 766.446 768.536 766.659 768.867 766.785C769.197 766.911 769.556 766.944 769.904 766.88C771.275 766.552 772.553 765.914 773.639 765.016C775.179 763.998 776.535 762.725 777.649 761.253C778.111 760.555 778.333 759.725 778.281 758.89C778.1 757.923 777.702 757.01 777.117 756.219L775.296 753.352C774.378 757.136 772.084 760.443 768.861 762.627C765.038 765.378 761.309 766.411 757.696 765.762C756.281 765.519 754.935 764.972 753.753 764.157C752.57 763.343 751.579 762.281 750.847 761.046C749.836 759.604 749.188 757.94 748.956 756.194C748.724 754.449 748.915 752.673 749.514 751.017C750.8 747.448 753.196 744.386 756.35 742.279C759.371 739.895 763.211 738.799 767.036 739.23L765.282 736.469L772.282 731.434L783.526 749.134C784.746 750.872 785.594 752.843 786.018 754.923C786.195 756.416 785.993 757.929 785.432 759.323C784.673 760.942 783.654 762.426 782.414 763.714C780.617 765.618 778.625 767.328 776.47 768.814C771.67 772.269 767.895 774.162 765.16 774.428C762.448 774.728 760.509 774.01 759.384 772.24C759.244 772.025 759.121 771.8 759.015 771.567V771.567ZM758.354 755.226C759.681 757.314 761.217 758.426 763.026 758.569C764.911 758.656 766.766 758.07 768.259 756.917C769.976 755.748 771.271 754.056 771.951 752.093C772.253 751.124 772.325 750.098 772.161 749.096C771.998 748.094 771.604 747.144 771.01 746.321C769.71 744.268 768.129 743.185 766.32 743.043C764.317 742.981 762.356 743.626 760.78 744.864C759.129 745.982 757.895 747.614 757.269 749.507C757.012 750.481 756.976 751.5 757.164 752.489C757.352 753.479 757.758 754.414 758.354 755.226ZM817.948 727.289L810.465 732.675L804.078 722.622C802.729 720.498 801.69 719.235 800.959 718.832C800.194 718.456 799.329 718.337 798.491 718.493C797.423 718.714 796.418 719.172 795.551 719.835C794.321 720.693 793.289 721.805 792.526 723.096C791.861 724.138 791.561 725.37 791.671 726.601C792.124 728.378 792.908 730.054 793.98 731.541L799.647 740.462L792.164 745.849L779.638 726.131L786.592 721.125L788.437 724.025C789.562 719.929 792.116 716.371 795.637 713.994C797.155 712.883 798.816 711.983 800.575 711.317C801.883 710.824 803.279 710.609 804.675 710.685C805.712 710.805 806.698 711.199 807.533 711.826C808.584 712.742 809.474 713.828 810.167 715.037L817.948 727.289ZM823.41 683.738L831.3 678.059L840.655 692.785C841.563 694.328 842.623 695.778 843.818 697.111C844.408 697.544 845.081 697.851 845.795 698.012C846.509 698.172 847.248 698.184 847.967 698.045C852.17 696.929 855.821 694.318 858.238 690.703C858.93 689.554 859.142 688.178 858.829 686.874C858.148 685.169 857.276 683.546 856.229 682.038L846.672 666.993L854.561 661.314L863.624 675.58C865.693 678.836 866.974 681.319 867.381 682.986C867.828 684.654 867.773 686.417 867.222 688.053C866.489 690.086 865.399 691.972 864.002 693.621C861.949 695.971 859.608 698.054 857.036 699.821C853.295 702.514 850.309 704.251 847.952 705.021C846.041 705.777 843.988 706.11 841.936 705.999C840.438 705.926 838.992 705.428 837.765 704.565C835.735 702.722 833.996 700.582 832.607 698.218L823.41 683.738ZM867.36 662.987L874.36 657.952L876.204 660.852C876.538 659.036 877.265 657.315 878.335 655.81C879.548 654.005 881.088 652.442 882.874 651.201C885.75 648.956 889.314 647.776 892.961 647.861C896.404 647.961 899.139 649.661 901.161 652.842C902.167 654.312 902.819 655.996 903.066 657.76C903.313 659.524 903.148 661.322 902.584 663.012C901.368 666.589 899.021 669.672 895.897 671.797C894.489 672.84 892.925 673.652 891.263 674.204C889.496 674.718 887.658 674.943 885.82 674.872L892.139 684.82L884.656 690.206L867.36 662.987ZM880.811 667.182C882.227 669.412 883.911 670.572 885.848 670.726C887.863 670.854 889.856 670.244 891.455 669.011C893.085 667.906 894.288 666.276 894.862 664.392C895.394 662.616 894.951 660.614 893.562 658.419C892.235 656.331 890.699 655.219 888.862 655.04C886.925 654.951 885.019 655.553 883.485 656.74C881.782 657.88 880.511 659.558 879.875 661.506C879.587 662.461 879.522 663.469 879.684 664.453C879.846 665.437 880.232 666.37 880.811 667.182V667.182Z" fill="white"/>
<path d="M483.964 466.523C534.248 419.303 543.272 347.224 504.119 305.531C464.966 263.837 392.463 268.317 342.179 315.537C291.895 362.757 282.871 434.836 322.024 476.529C361.177 518.223 433.68 513.743 483.964 466.523Z" fill="white"/>
<path fill-rule="evenodd" clip-rule="evenodd" d="M402.619 442.921C388.028 442.7 374.875 436.298 367.143 424.127C353.126 402.063 362.277 369.338 387.625 351.091C412.973 332.844 445.025 335.927 459.039 357.991C468.105 372.262 467.364 391.025 458.995 407.391C493.358 395.829 524.107 401.558 531.86 422.906C540.933 447.973 514.808 485.163 473.6 505.879C432.392 526.595 391.443 523.101 382.371 498.034C376.711 482.1 385.1 461.3 402.619 442.921Z" fill="#D1CFE1"/>
<path fill-rule="evenodd" clip-rule="evenodd" d="M1145.56 950.137C1154.38 783.748 1095.89 638.937 1101.21 543.816C1104.62 483.475 1078.5 393.916 1177.67 379.407C1262.69 366.969 1367.77 389.441 1388.48 412.319C1430.41 458.475 1415.19 708.74 1375.34 742.875C1295.47 793.865 1207.95 899.189 1145.56 950.137Z" fill="#FE9400"/>
<path fill-rule="evenodd" clip-rule="evenodd" d="M1317.51 503.749C1310.6 512.966 1306.69 524.373 1303.45 535.288C1294.88 563.432 1294.55 591.519 1298.46 620.479C1302.29 649.079 1309.86 678.706 1304.7 707.633C1300.79 729.033 1289.31 746.726 1278.08 764.896C1249.88 810.596 1233.23 825.603 1195.05 859.488C1173.33 878.688 1130.99 957.615 1137.39 988.331C1141.8 1009.75 1175.66 988.954 1188.39 982.407C1222.92 964.612 1253.79 939.595 1287.48 920.053C1335.56 892.092 1389.64 867.94 1425.66 823.93C1473.5 765.43 1479.24 676.976 1460.85 606.053C1452.12 572.293 1436.73 536.96 1406.36 517.592L1317.51 503.749Z" fill="black" fill-opacity="0.1"/>
<path fill-rule="evenodd" clip-rule="evenodd" d="M1378.66 415.333C1435.82 439.463 1552.21 767.877 1485.31 829.06C1418.4 890.243 977.287 782.46 977.287 782.46C964.649 787.507 933.102 794.042 918.667 786.065C896.943 774.011 910.312 747.094 903.484 733.385C894.731 715.756 832.203 755.422 834.723 721.277C836.293 701.083 937.662 689.784 969.373 702.577C980.712 707.136 983.984 719.325 983.984 719.325C983.984 719.325 1298.16 748.425 1330.88 725.45C1371.33 696.988 1269.93 594.373 1285.71 478.38C1295.42 407.081 1347.27 402.057 1378.66 415.333V415.333Z" fill="#FFC197"/>
<path fill-rule="evenodd" clip-rule="evenodd" d="M1288.41 628.224C1295.79 613.537 1318.47 606.069 1332.61 601.117C1347.55 595.874 1363.47 593.56 1379.28 595.864C1403.07 599.329 1424.38 611.875 1448.36 614.123C1466.2 615.787 1485.03 610.979 1500.53 602.077C1507.78 597.924 1514.22 592.503 1519.55 586.071C1550.95 547.988 1524.85 486.9 1504.27 450.311C1481.1 409.137 1444.67 371.055 1398.61 356.321C1327.2 333.456 1253.51 380.643 1229.23 448.166C1219.76 474.916 1216.89 503.555 1220.85 531.652C1225.43 565.047 1238.19 597.797 1260.75 623.099L1288.41 628.224Z" fill="#FE9400"/>
<path fill-rule="evenodd" clip-rule="evenodd" d="M1191.17 377.159C1191.17 377.159 1224.7 352.359 1216.88 326.252C1214.88 319.397 1199.74 338.714 1186.1 330.352C1167.46 318.852 1162.97 252.574 1184.02 218.09C1197.08 196.717 1243 183.897 1257.98 198.456C1272.96 213.015 1278.86 275.07 1273.7 305.456C1265.55 353.926 1309.73 383.085 1309.73 383.085C1309.73 383.085 1236.35 441.812 1217.88 490.556C1212.47 504.87 1191.17 377.159 1191.17 377.159V377.159Z" fill="#FFC197"/>
<path fill-rule="evenodd" clip-rule="evenodd" d="M1208.14 329.82C1210.8 328.381 1212.96 325.444 1214.96 323.248C1219.55 318.332 1223.77 313.091 1227.6 307.566C1229.02 305.366 1230.43 303.123 1232.01 300.951C1232.35 300.402 1233.26 298.805 1234.09 298.805C1234.93 298.805 1234.43 301.551 1234.34 301.905C1233.79 305.747 1232.9 309.532 1231.68 313.219C1227.11 328.31 1217.7 339.608 1207.64 351.347L1208.14 329.82Z" fill="black" fill-opacity="0.1"/>
<path fill-rule="evenodd" clip-rule="evenodd" d="M1194.25 246.094C1188.01 245.72 1182.19 242.076 1177.36 238.349C1158.81 224.056 1160.06 199.189 1176.2 183.515C1185.93 174.106 1205.9 167.825 1215.22 181.07C1218.21 176.827 1224.45 175.029 1229.19 173.923C1233.04 172.901 1237.04 172.552 1241.01 172.891C1268.13 176.544 1261.81 210.628 1282.44 221.527C1289.18 217.192 1296.58 231.36 1297.91 235.678C1302.49 250.695 1300.49 276.36 1283.19 282.35C1281.69 286.385 1277.86 289.222 1274.45 291.55C1265.05 298.015 1249.91 302.64 1239.43 295.96C1238.17 295.144 1237.02 294.165 1236.02 293.048C1228.53 284.72 1236.43 275.228 1238.93 266.576C1240.26 262.016 1241.34 256.309 1237.35 252.724C1234.1 249.912 1230.86 251.509 1228.28 254.224C1224.37 258.359 1222.21 264.873 1215.97 266.038C1206.98 267.702 1198.25 259.066 1195.42 253.009C1194.83 251.726 1194.25 246.094 1194.25 246.094V246.094Z" fill="black"/>
<path fill-rule="evenodd" clip-rule="evenodd" d="M1136.89 179.983C1136.89 177.058 1136.08 174.192 1134.53 171.708C1132.99 169.225 1130.78 167.225 1128.15 165.935L794 1.60002C791.612 0.434061 788.966 -0.10606 786.312 0.0303145C783.658 0.166689 781.081 0.975084 778.825 2.37968C776.569 3.78427 774.706 5.73902 773.412 8.06053C772.118 10.382 771.435 12.9942 771.427 15.652V70.952C771.434 73.8744 772.255 76.7371 773.798 79.2186C775.342 81.7001 777.547 83.7021 780.165 85L1114.38 249.366C1116.77 250.537 1119.41 251.08 1122.07 250.943C1124.72 250.806 1127.3 249.993 1129.55 248.583C1131.81 247.172 1133.66 245.21 1134.95 242.881C1136.23 240.553 1136.9 237.936 1136.89 235.277L1136.89 179.983Z" fill="#77536F"/>
<path fill-rule="evenodd" clip-rule="evenodd" d="M818.564 83.488L811.454 75.443L820.705 66.043L804.35 53.668L806.536 46.7L822.892 59.073L822.026 42.014L830.485 45.748L831.35 62.807L847.171 64.638L850.181 73.9L834.36 72.068L845.012 90.257L838.412 92.25L827.812 74.078L818.564 83.488ZM877.422 112.4L870.312 104.354L879.563 94.954L863.208 82.582L865.394 75.614L881.75 87.986L880.884 70.928L889.343 74.662L890.208 91.72L906.029 93.552L909.039 102.813L893.218 100.982L903.87 119.171L897.27 121.163L886.67 102.992L877.422 112.4ZM940.488 140.528L933.378 132.483L942.629 123.083L926.274 110.711L928.46 103.743L944.816 116.116L943.95 99.057L952.409 102.791L953.274 119.85L969.095 121.681L972.105 130.943L956.284 129.111L966.936 147.3L960.336 149.293L949.736 131.121L940.488 140.528ZM1002.07 173.705L994.96 165.659L1004.21 156.259L987.856 143.886L990.043 136.919L1006.4 149.291L1005.53 132.233L1013.99 135.967L1014.86 153.025L1030.68 154.857L1033.69 164.118L1017.87 162.287L1028.52 180.475L1021.92 182.468L1011.32 164.297L1002.07 173.705ZM1067.06 205.664L1059.94 197.619L1069.2 188.219L1052.84 175.847L1055.03 168.879L1071.38 181.252L1070.52 164.193L1078.98 167.927L1079.84 184.986L1095.66 186.817L1098.67 196.079L1082.85 194.247L1093.5 212.436L1086.9 214.429L1076.3 196.257L1067.06 205.664Z" fill="white"/>
<path fill-rule="evenodd" clip-rule="evenodd" d="M926.811 179.137C932.011 173.237 963.236 159.023 971.432 157.882C984.502 155.962 996.805 164.524 992.276 176.953C990.476 181.735 950.925 192.722 940.047 193.112C935.593 193.253 924.735 181.475 926.811 179.137Z" fill="#FFC197"/>
</svg>
