<svg width="488" height="452" viewBox="0 0 488 452" fill="none" xmlns="http://www.w3.org/2000/svg">
<path d="M0.0958252 246.294V264.486C0.0958305 267.954 1.47384 271.281 3.92671 273.734C6.37958 276.187 9.70639 277.565 13.1753 277.565H59.3413C61.0589 277.565 62.7597 277.903 64.3466 278.561C65.9334 279.218 67.3753 280.181 68.5898 281.396C69.8044 282.61 70.7678 284.052 71.4251 285.639C72.0824 287.226 72.4207 288.927 72.4207 290.644V308.836C72.4207 310.553 72.0824 312.254 71.4251 313.841C70.7678 315.428 69.8044 316.87 68.5898 318.084C67.3753 319.299 65.9334 320.262 64.3465 320.919C62.7597 321.577 61.0589 321.915 59.3413 321.915H57.8836C54.4147 321.915 51.0879 323.293 48.635 325.746C46.1822 328.199 44.8042 331.526 44.8042 334.994V353.186C44.8042 354.903 45.1425 356.604 45.7998 358.191C46.4571 359.778 47.4205 361.22 48.635 362.434C49.8496 363.649 51.2915 364.612 52.8783 365.269C54.4652 365.927 56.166 366.265 57.8836 366.265L419.791 366.265C421.508 366.265 423.209 365.927 424.796 365.27C426.383 364.612 427.825 363.649 429.039 362.434C430.254 361.22 431.217 359.778 431.875 358.191C432.532 356.604 432.87 354.903 432.87 353.186V334.995C432.87 333.277 432.532 331.576 431.875 329.989C431.217 328.403 430.254 326.961 429.039 325.746C427.825 324.532 426.383 323.568 424.796 322.911C423.209 322.254 421.508 321.915 419.791 321.915C416.322 321.915 412.995 320.537 410.542 318.084C408.089 315.631 406.711 312.305 406.711 308.836V290.645C406.711 287.176 408.089 283.849 410.542 281.396C412.995 278.943 416.322 277.565 419.791 277.565H470.37C472.088 277.565 473.789 277.227 475.375 276.57C476.962 275.912 478.404 274.949 479.619 273.734C480.833 272.52 481.797 271.078 482.454 269.491C483.111 267.904 483.45 266.203 483.45 264.486V246.295C483.45 242.826 482.072 239.499 479.619 237.046C477.166 234.593 473.839 233.215 470.37 233.215H450.524C448.806 233.215 447.105 232.877 445.518 232.219C443.931 231.562 442.49 230.599 441.275 229.384C440.06 228.17 439.097 226.728 438.44 225.141C437.782 223.554 437.444 221.853 437.444 220.136V201.944C437.444 198.476 438.822 195.149 441.275 192.696C443.728 190.243 447.055 188.865 450.524 188.865H450.572C454.04 188.865 457.367 187.487 459.82 185.034C462.273 182.581 463.651 179.254 463.651 175.786V157.594C463.651 154.126 462.273 150.799 459.82 148.346C457.367 145.893 454.04 144.515 450.572 144.515H447.7C444.231 144.515 440.905 143.137 438.452 140.684C435.999 138.231 434.621 134.904 434.621 131.436V113.244C434.621 109.775 435.999 106.449 438.452 103.996C440.905 101.543 444.231 100.165 447.7 100.165H474.825C478.294 100.165 481.62 98.7868 484.073 96.334C486.526 93.8811 487.904 90.5543 487.904 87.0854V68.8942C487.904 67.1766 487.566 65.4758 486.909 63.8889C486.251 62.3021 485.288 60.8602 484.073 59.6457C482.859 58.4311 481.417 57.4677 479.83 56.8104C478.243 56.1531 476.542 55.8148 474.825 55.8148L50.8617 55.8146C47.3928 55.8146 44.066 57.1926 41.6132 59.6455C39.1603 62.0984 37.7823 65.4252 37.7823 68.8941V87.0852C37.7823 88.8028 38.1206 90.5036 38.7779 92.0905C39.4352 93.6774 40.3986 95.1193 41.6132 96.3338C42.8277 97.5483 44.2696 98.5118 45.8564 99.1691C47.4433 99.8264 49.1441 100.165 50.8617 100.165H62.2022C65.6711 100.165 68.9979 101.543 71.4508 103.996C73.9037 106.448 75.2817 109.775 75.2817 113.244V131.435C75.2817 133.153 74.9434 134.854 74.2861 136.441C73.6288 138.028 72.6654 139.469 71.4508 140.684C70.2363 141.898 68.7944 142.862 67.2075 143.519C65.6207 144.177 63.9199 144.515 62.2022 144.515H35.4624C31.9935 144.515 28.6667 145.893 26.2138 148.346C23.7609 150.799 22.3829 154.125 22.3829 157.594V175.785C22.3829 177.503 22.7212 179.204 23.3785 180.791C24.0358 182.378 24.9993 183.819 26.2138 185.034C27.4283 186.248 28.8702 187.212 30.4571 187.869C32.0439 188.527 33.7447 188.865 35.4624 188.865H43.574C47.0429 188.865 50.3697 190.243 52.8226 192.696C55.2754 195.149 56.6535 198.475 56.6535 201.944V220.136C56.6535 221.853 56.3151 223.554 55.6578 225.141C55.0005 226.728 54.0371 228.17 52.8226 229.384C51.608 230.599 50.1662 231.562 48.5793 232.219C46.9924 232.877 45.2916 233.215 43.574 233.215H13.1753C11.4577 233.215 9.75691 233.553 8.17004 234.211C6.58316 234.868 5.14129 235.831 3.92674 237.046C2.7122 238.26 1.74876 239.702 1.09145 241.289C0.434144 242.876 0.0958291 244.577 0.0958252 246.294Z" fill="#DBE8EC"/>
<path d="M387.432 112.877H347.645V131.542H387.432V112.877Z" fill="#B9D4DB"/>
<path d="M387.432 156.946H347.645V175.611H387.432V156.946Z" fill="#B9D4DB"/>
<path d="M365.539 134.906H325.752V153.571H365.539V134.906Z" fill="#B9D4DB"/>
<path d="M408.69 134.906H368.903V153.571H408.69V134.906Z" fill="#B9D4DB"/>
<path d="M92.544 112.876H132.331V94.211H92.544V112.876Z" fill="#B9D4DB"/>
<path d="M112.437 90.846H152.224V72.181H112.437V90.846Z" fill="#B9D4DB"/>
<path d="M69.286 90.846H109.073V72.181H69.286V90.846Z" fill="#B9D4DB"/>
<path d="M375.199 296.62C369.721 296.342 366.416 289.956 365.653 288.481C364.48 286.322 363.817 283.923 363.713 281.468C363.621 278.353 364.62 277.69 364.189 275.187C363.702 272.36 362.161 271.652 360.569 268.595C359.256 265.889 358.543 262.93 358.479 259.923C357.991 255.066 358.935 250.173 361.194 245.846C370.418 229.242 375.784 220.036 375.784 220.036C375.784 220.036 389.042 234.6 391.121 247.026C392.01 252.338 393.101 252.934 392.534 258.75C392.288 261.268 391.03 262.48 390.182 265.621C389.833 266.915 389.893 267.549 389.958 272.196C390.259 274.842 390.241 277.515 389.905 280.157C389.234 284.689 387.082 288.872 383.785 292.052C381.561 294.191 378.843 296.805 375.199 296.62Z" fill="#E06714"/>
<path d="M376.9 238.66L376.73 398.067L372.902 398.017L376.9 238.66Z" fill="#EE781D"/>
<path d="M399.727 305.017C394.793 303.707 393.017 297.255 392.607 295.766C391.956 293.573 391.815 291.261 392.194 289.006C392.712 286.152 393.749 285.742 393.84 283.379C393.942 280.712 392.676 279.77 391.816 276.68C391.143 273.962 391.065 271.131 391.587 268.381C392.079 263.865 393.883 259.592 396.775 256.089C408.376 242.752 415.038 235.406 415.038 235.406C415.038 235.406 424.298 251.224 423.794 262.938C423.578 267.946 424.456 268.699 422.817 273.884C422.108 276.13 420.728 276.99 419.35 279.686C418.783 280.797 418.715 281.386 417.878 285.629C417.641 288.096 417.109 290.526 416.293 292.866C414.808 296.863 412.042 300.256 408.425 302.516C405.988 304.033 403.009 305.889 399.727 305.017Z" fill="#F9AE2B"/>
<path d="M412.461 252.577L378.789 404.696L374.32 403.638L412.461 252.577Z" fill="#409CB5"/>
<path d="M371.943 349.842C368.084 349.646 365.755 345.146 365.218 344.107C364.392 342.586 363.924 340.896 363.851 339.166C363.787 336.971 364.491 336.505 364.187 334.741C363.844 332.749 362.758 332.251 361.636 330.097C360.711 328.19 360.209 326.106 360.164 323.987C359.82 320.565 360.485 317.118 362.077 314.069C368.575 302.371 372.356 295.885 372.356 295.885C372.356 295.885 381.697 306.146 383.162 314.9C383.788 318.643 384.556 319.063 384.157 323.16C383.984 324.934 383.097 325.788 382.5 328.001C382.254 328.913 382.296 329.36 382.342 332.634C382.554 334.498 382.542 336.381 382.304 338.242C381.832 341.436 380.316 344.383 377.992 346.623C376.426 348.13 374.511 349.972 371.943 349.842Z" fill="#EE781D"/>
<path d="M373.143 309.006L372.351 399.129L368.525 399.014L373.143 309.006Z" fill="#409CB5"/>
<path d="M386.292 323.341C381.931 323.12 379.299 318.035 378.692 316.861C377.758 315.142 377.23 313.232 377.147 311.277C377.074 308.797 377.87 308.27 377.526 306.276C377.139 304.026 375.912 303.462 374.644 301.028C373.599 298.873 373.031 296.518 372.981 294.123C372.592 290.257 373.343 286.361 375.142 282.916C382.485 269.696 386.758 262.366 386.758 262.366C386.758 262.366 397.314 273.962 398.97 283.855C399.678 288.085 400.546 288.559 400.094 293.19C399.899 295.194 398.897 296.16 398.222 298.66C397.944 299.691 397.992 300.196 398.044 303.895C398.283 306.002 398.269 308.13 398.001 310.233C397.467 313.842 395.754 317.172 393.128 319.705C391.358 321.407 389.194 323.489 386.292 323.341Z" fill="#409CB5"/>
<path d="M387.762 277.2L386.77 307.907L385.663 338.608C385.303 348.843 385.075 359.083 384.442 369.305C384.117 374.415 383.792 379.525 383.368 384.631L382.73 392.289C382.471 394.84 382.255 397.392 381.958 399.941L381.729 399.93C381.674 397.365 381.7 394.803 381.683 392.24L381.769 384.555C381.829 379.432 381.988 374.314 382.147 369.196C382.481 358.96 383.22 348.744 383.828 338.522L385.623 307.852L387.532 277.189L387.762 277.2Z" fill="#EE781D"/>
<path d="M358.668 327.011C354.464 327.33 351.326 322.782 350.602 321.731C349.498 320.199 348.759 318.434 348.442 316.572C348.071 314.206 348.768 313.604 348.197 311.737C347.551 309.63 346.308 309.239 344.798 307.063C343.535 305.126 342.705 302.94 342.364 300.653C341.521 296.998 341.767 293.176 343.07 289.658C348.493 276.105 351.692 268.566 351.692 268.566C351.692 268.566 363.211 278.386 366.001 287.657C367.194 291.621 368.083 291.969 368.214 296.459C368.271 298.402 367.429 299.448 367.087 301.925C366.946 302.946 367.053 303.423 367.554 306.96C368.04 308.948 368.285 310.987 368.284 313.034C368.212 316.555 366.977 319.952 364.771 322.697C363.283 324.542 361.464 326.799 358.668 327.011Z" fill="#F9AE2B"/>
<path d="M354.348 282.657L371.484 395.656L366.929 396.254L354.348 282.657Z" fill="#EE781D"/>
<path d="M406.566 328.3C402.137 326.777 400.936 320.757 400.66 319.367C400.208 317.318 400.23 315.193 400.726 313.155C401.387 310.578 402.363 310.271 402.601 308.115C402.87 305.681 401.774 304.736 401.19 301.852C400.753 299.321 400.868 296.726 401.527 294.244C402.274 290.144 404.205 286.353 407.082 283.338C418.573 271.898 425.152 265.615 425.152 265.615C425.152 265.615 432.585 280.697 431.353 291.382C430.826 295.949 431.58 296.696 429.74 301.333C428.943 303.341 427.624 304.037 426.186 306.414C425.593 307.392 425.493 307.927 424.448 311.754C424.069 313.996 423.422 316.184 422.521 318.272C420.9 321.831 418.146 324.754 414.689 326.583C412.359 327.812 409.511 329.313 406.566 328.3Z" fill="#E06714"/>
<path d="M421.665 281.156L386.725 398.654L383.074 397.506L421.665 281.156Z" fill="#EE781D"/>
<path d="M356.16 365.18C353.33 365.753 350.812 362.926 350.231 362.274C349.351 361.325 348.699 360.188 348.326 358.95C347.874 357.373 348.297 356.905 347.75 355.684C347.133 354.306 346.255 354.146 345.044 352.794C344.022 351.585 343.273 350.169 342.848 348.643C341.966 346.23 341.809 343.611 342.397 341.11C344.937 331.439 346.473 326.044 346.473 326.044C346.473 326.044 355.134 331.744 357.815 337.81C358.961 340.403 359.595 340.565 360.064 343.605C360.267 344.921 359.783 345.704 359.76 347.416C359.751 348.122 359.864 348.437 360.503 350.799C361.002 352.109 361.341 353.475 361.514 354.866C361.763 357.265 361.211 359.679 359.943 361.731C359.088 363.112 358.043 364.799 356.16 365.18Z" fill="#F9AE2B"/>
<path d="M349.583 335.372L353.709 351.696L357.722 368.046C359.045 373.499 360.562 378.909 361.624 384.421C362.7 389.929 363.684 395.458 364.293 401.072L364.069 401.122C362.226 395.785 360.759 390.364 359.383 384.923C357.992 379.484 357.058 373.944 355.929 368.448L352.588 351.947L349.359 335.422L349.583 335.372ZM407.098 355.691C403.087 353.859 402.511 348.107 402.379 346.779C402.142 344.817 402.358 342.828 403.008 340.963C403.863 338.608 404.806 338.409 405.226 336.41C405.7 334.154 404.759 333.168 404.475 330.412C404.296 328 404.641 325.578 405.485 323.312C406.56 319.538 408.716 316.161 411.687 313.598C423.501 303.925 430.241 298.637 430.241 298.637C430.241 298.637 435.83 313.451 433.7 323.352C432.789 327.585 433.428 328.354 431.279 332.532C430.349 334.34 429.049 334.873 427.485 336.969C426.84 337.832 426.697 338.324 425.369 341.816C424.809 343.882 424.003 345.874 422.968 347.748C421.124 350.936 418.276 353.424 414.868 354.823C412.573 355.761 409.767 356.909 407.098 355.691Z" fill="#409CB5"/>
<path d="M425.659 312.93L415.889 336.709L406.013 360.442C402.707 368.347 399.584 376.331 396.032 384.129C392.494 391.934 388.869 399.701 384.891 407.316L384.681 407.225C387.497 399.109 390.668 391.145 393.924 383.219C397.166 375.286 400.838 367.539 404.326 359.713L414.835 336.253L425.448 312.839L425.659 312.93Z" fill="#EE781D"/>
<path d="M409.269 374C406.991 372.012 407.737 368.12 407.909 367.222C408.137 365.887 408.667 364.622 409.459 363.523C410.481 362.143 411.139 362.197 411.806 360.966C412.558 359.576 412.132 358.744 412.484 356.877C412.838 355.258 413.538 353.734 414.535 352.409C415.979 350.14 418.055 348.342 420.508 347.239C430.161 343.192 435.623 341.034 435.623 341.034C435.623 341.034 436.401 351.859 433.067 357.949C431.641 360.553 431.911 361.182 429.683 363.508C428.718 364.514 427.76 364.61 426.322 365.682C425.73 366.123 425.54 366.418 423.985 368.453C423.213 369.701 422.295 370.853 421.248 371.882C419.413 373.616 417.056 374.694 414.544 374.948C412.852 375.116 410.784 375.322 409.269 374Z" fill="#F9AE2B"/>
<path d="M429.847 349.553L418.892 363.361L407.849 377.095C404.156 381.663 400.616 386.359 396.718 390.755C392.831 395.161 388.872 399.506 384.618 403.605L384.442 403.457C387.726 398.547 391.305 393.884 394.957 389.281C398.596 384.669 402.594 380.356 406.44 375.916L418.012 362.624L429.671 349.406L429.847 349.553Z" fill="#409CB5"/>
<path d="M113.172 277.799C119.581 277.474 123.448 270.001 124.34 268.276C125.712 265.749 126.489 262.942 126.61 260.07C126.717 256.425 125.549 255.65 126.053 252.721C126.623 249.414 128.426 248.586 130.289 245.009C131.825 241.842 132.659 238.381 132.734 234.862C133.305 229.179 132.201 223.454 129.557 218.392C118.766 198.965 112.486 188.193 112.486 188.193C112.486 188.193 96.9746 205.234 94.5416 219.772C93.5014 225.988 92.2254 226.684 92.889 233.49C93.1762 236.436 94.649 237.854 95.6406 241.529C96.0491 243.043 95.9789 243.785 95.9023 249.222C95.5501 252.318 95.5713 255.445 95.9654 258.536C96.8701 266.261 102.118 271.485 103.126 272.454C105.728 274.956 108.908 278.015 113.172 277.799Z" fill="#F9AE2B"/>
<path d="M111.181 209.984L111.38 396.494L115.859 396.436L111.181 209.984Z" fill="#E06714"/>
<path d="M84.4726 287.624C90.2454 286.091 92.3241 278.542 92.803 276.799C93.565 274.234 93.7304 271.529 93.2865 268.89C92.6808 265.551 91.4671 265.071 91.3613 262.307C91.2419 259.186 92.7233 258.084 93.7296 254.468C94.5168 251.288 94.6081 247.976 93.997 244.758C93.4209 239.474 91.3108 234.475 87.9271 230.377C74.3534 214.772 66.5581 206.177 66.5581 206.177C66.5581 206.177 55.724 224.684 56.3142 238.39C56.5666 244.249 55.5392 245.13 57.4566 251.197C58.2866 253.824 59.9012 254.831 61.5132 257.986C62.1772 259.285 62.2564 259.975 63.2358 264.939C63.5126 267.826 64.1353 270.669 65.0906 273.407C66.8278 278.083 70.0645 282.053 74.2955 284.697C77.1469 286.473 80.6325 288.643 84.4726 287.624Z" fill="#F9AE2B"/>
<path d="M69.574 226.267L108.971 404.251L114.2 403.012L69.574 226.267Z" fill="#409CB5"/>
<path d="M116.98 340.069C121.496 339.84 124.221 334.576 124.849 333.36C125.816 331.58 126.363 329.602 126.449 327.579C126.524 325.011 125.7 324.465 126.056 322.401C126.458 320.071 127.728 319.487 129.04 316.967C130.123 314.736 130.71 312.298 130.763 309.818C131.165 305.815 130.387 301.781 128.525 298.215C120.922 284.527 116.498 276.939 116.498 276.939C116.498 276.939 105.569 288.944 103.855 299.187C103.122 303.566 102.223 304.057 102.691 308.852C102.893 310.927 103.931 311.927 104.629 314.516C104.917 315.582 104.867 316.105 104.814 319.936C104.565 322.117 104.58 324.32 104.858 326.498C105.41 330.234 107.184 333.682 109.903 336.304C111.736 338.067 113.976 340.222 116.98 340.069Z" fill="#F9AE2B"/>
<path d="M115.577 292.291L116.504 397.737L120.98 397.602L115.577 292.291Z" fill="#409CB5"/>
<path d="M100.192 309.063C105.295 308.805 108.374 302.855 109.084 301.481C110.177 299.47 110.795 297.235 110.892 294.948C110.977 292.046 110.046 291.429 110.448 289.097C110.902 286.464 112.337 285.804 113.821 282.957C115.044 280.435 115.708 277.679 115.767 274.878C116.222 270.353 115.343 265.795 113.238 261.765C104.646 246.297 99.6464 237.721 99.6464 237.721C99.6464 237.721 87.2961 251.288 85.3589 262.863C84.5307 267.812 83.5148 268.367 84.0432 273.785C84.2718 276.131 85.4445 277.26 86.234 280.186C86.5592 281.391 86.5033 281.982 86.4423 286.311C86.1619 288.776 86.1788 291.266 86.4926 293.727C87.1169 297.949 89.1216 301.846 92.1938 304.808C94.2651 306.8 96.7973 309.236 100.192 309.063Z" fill="#409CB5"/>
<path d="M98.4724 255.076L99.6332 291.004L100.928 326.926C101.349 338.9 101.616 350.882 102.357 362.841C102.737 368.821 103.117 374.8 103.613 380.773L104.36 389.734C104.663 392.718 104.915 395.705 105.263 398.687L105.531 398.674C105.596 395.673 105.565 392.676 105.585 389.676L105.484 380.685C105.414 374.691 105.228 368.703 105.042 362.714C104.652 350.739 103.786 338.785 103.075 326.825L100.975 290.941L98.741 255.063L98.4724 255.076Z" fill="#EE781D"/>
<path d="M132.513 313.357C137.432 313.731 141.104 308.409 141.951 307.179C143.242 305.386 144.106 303.321 144.477 301.143C144.912 298.375 144.096 297.671 144.765 295.486C145.52 293.02 146.974 292.563 148.742 290.017C150.22 287.751 151.191 285.193 151.589 282.518C152.575 278.241 152.288 273.769 150.763 269.653C144.419 253.796 140.675 244.975 140.675 244.975C140.675 244.975 127.197 256.464 123.933 267.312C122.538 271.95 121.498 272.357 121.344 277.61C121.277 279.884 122.263 281.108 122.663 284.006C122.827 285.2 122.702 285.759 122.117 289.896C121.548 292.223 121.261 294.609 121.262 297.004C121.346 301.123 122.791 305.098 125.372 308.309C127.113 310.469 129.242 313.109 132.513 313.357Z" fill="#F9AE2B"/>
<path d="M137.568 261.462L117.518 393.674L122.847 394.373L137.568 261.462Z" fill="#EE781D"/>
<path d="M76.4716 314.865C81.6528 313.083 83.0583 306.039 83.3818 304.413C83.9104 302.016 83.8838 299.53 83.3041 297.145C82.5304 294.13 81.3883 293.77 81.1097 291.248C80.7953 288.4 82.0782 287.295 82.7611 283.92C83.2724 280.959 83.138 277.922 82.3673 275.018C81.4927 270.222 79.2333 265.786 75.8678 262.259C62.4221 248.873 54.7244 241.522 54.7244 241.522C54.7244 241.522 46.0286 259.168 47.47 271.669C48.0862 277.014 47.2041 277.887 49.3575 283.313C50.2896 285.662 51.8331 286.477 53.5155 289.257C54.2085 290.403 54.3263 291.028 55.5489 295.506C55.992 298.129 56.7487 300.689 57.8029 303.132C59.6999 307.297 62.9224 310.716 66.9675 312.856C69.6931 314.294 73.0251 316.051 76.4716 314.865Z" fill="#EE781D"/>
<path d="M58.805 259.706L99.685 397.182L103.957 395.838L58.805 259.706Z" fill="#F9AE2B"/>
<path d="M135.447 358.016C138.759 358.686 141.705 355.379 142.385 354.615C143.414 353.505 144.177 352.175 144.613 350.726C145.143 348.881 144.648 348.333 145.287 346.905C146.009 345.293 147.036 345.105 148.453 343.524C149.649 342.109 150.526 340.452 151.023 338.667C152.055 335.844 152.238 332.78 151.55 329.853C148.579 318.538 146.781 312.226 146.781 312.226C146.781 312.226 136.648 318.894 133.511 325.992C132.17 329.026 131.429 329.215 130.88 332.773C130.642 334.313 131.209 335.228 131.235 337.232C131.246 338.057 131.113 338.426 130.366 341.189C129.782 342.722 129.385 344.32 129.183 345.948C128.892 348.755 129.538 351.579 131.021 353.98C132.021 355.596 133.245 357.57 135.447 358.016Z" fill="#E06714"/>
<path d="M143.143 323.14L138.316 342.24L133.62 361.369C132.071 367.75 130.297 374.079 129.054 380.528C127.796 386.973 126.644 393.442 125.932 400.01L126.194 400.069C128.35 393.824 130.067 387.482 131.677 381.115C133.303 374.752 134.397 368.27 135.717 361.839L139.626 342.533L143.405 323.198L143.143 323.14Z" fill="#F9AE2B"/>
<path d="M75.8481 346.913C80.5413 344.77 81.2156 338.04 81.3703 336.486C81.6469 334.191 81.395 331.863 80.634 329.681C79.6336 326.926 78.5304 326.693 78.0391 324.355C77.4844 321.714 78.5859 320.561 78.9179 317.336C79.1267 314.514 78.7236 311.68 77.7362 309.029C76.4786 304.613 73.9562 300.663 70.4799 297.664C56.6564 286.346 48.7708 280.159 48.7708 280.159C48.7708 280.159 42.2318 297.491 44.7238 309.076C45.7892 314.029 45.0422 314.928 47.5557 319.816C48.6437 321.933 50.1648 322.556 51.9953 325.008C52.7494 326.018 52.9169 326.593 54.4715 330.679C55.1262 333.097 56.0692 335.427 57.2801 337.62C59.4382 341.35 62.7706 344.261 66.7571 345.897C69.4429 346.996 72.7261 348.338 75.8481 346.913Z" fill="#409CB5"/>
<path d="M54.1318 296.882L65.5632 324.704L77.118 352.472C80.9861 361.721 84.6403 371.062 88.7961 380.187C92.9362 389.319 97.1769 398.407 101.831 407.316L102.078 407.21C98.7821 397.713 95.0728 388.396 91.2629 379.122C87.4692 369.84 83.1733 360.776 79.0914 351.62L66.7966 324.171L54.3784 296.775L54.1318 296.882Z" fill="#EE781D"/>
<path d="M73.3084 368.335C75.9734 366.01 75.1014 361.456 74.8994 360.405C74.6328 358.843 74.0125 357.363 73.086 356.077C71.8903 354.462 71.12 354.525 70.3402 353.085C69.4599 351.458 69.9583 350.485 69.5462 348.301C69.1321 346.406 68.3135 344.623 67.1466 343.074C65.4575 340.418 63.0281 338.315 60.1581 337.024C48.8637 332.289 42.4734 329.764 42.4734 329.764C42.4734 329.764 41.5635 342.43 45.4646 349.555C47.1324 352.601 46.8173 353.338 49.4239 356.059C50.5524 357.237 51.6736 357.349 53.3555 358.603C54.0484 359.119 54.2708 359.464 56.0905 361.845C56.9932 363.306 58.0681 364.653 59.2923 365.857C61.4391 367.886 64.1974 369.148 67.1366 369.444C69.116 369.641 71.5357 369.882 73.3084 368.335Z" fill="#F9AE2B"/>
<path d="M49.2311 339.732L62.049 355.887L74.9697 371.956C79.2904 377.301 83.4327 382.796 87.9936 387.939C92.5418 393.094 97.1739 398.178 102.151 402.974L102.357 402.801C98.5144 397.056 94.3267 391.601 90.0545 386.215C85.7958 380.818 81.1182 375.772 76.6186 370.577L63.0794 355.025L49.4371 339.559L49.2311 339.732Z" fill="#409CB5"/>
<path d="M448.269 394.64H43.269V409.76H448.269V394.64Z" fill="#4469A0"/>
<path d="M301.749 394.64V116.72C301.749 104.995 299.44 93.3859 294.953 82.5539C290.466 71.722 283.89 61.8798 275.6 53.5894C267.309 45.299 257.467 38.7227 246.635 34.2359C235.803 29.7492 224.193 27.4399 212.469 27.4399C188.791 27.4399 166.082 36.8462 149.338 53.5895C132.595 70.3327 123.189 93.0414 123.189 116.72V394.64H301.749Z" fill="#E06714"/>
<path d="M352.149 411.92L173.589 451.92V89.3599C173.589 77.6355 175.898 66.0259 180.385 55.194C184.872 44.362 191.448 34.5199 199.738 26.2295C208.029 17.939 217.871 11.3627 228.703 6.87601C239.535 2.38927 251.145 0.0799826 262.869 0.0799866C286.547 0.0799945 309.256 9.48625 326 26.2295C342.743 42.9727 352.149 65.6814 352.149 89.3599V411.92Z" fill="#EE781D"/>
<path d="M198.789 265.04C206.344 265.04 212.469 258.915 212.469 251.36C212.469 243.805 206.344 237.68 198.789 237.68C191.234 237.68 185.109 243.805 185.109 251.36C185.109 258.915 191.234 265.04 198.789 265.04Z" fill="#F9AE2B"/>
<path d="M262.869 136.88C267.243 136.88 270.789 133.334 270.789 128.96C270.789 124.586 267.243 121.04 262.869 121.04C258.495 121.04 254.949 124.586 254.949 128.96C254.949 133.334 258.495 136.88 262.869 136.88Z" fill="#F9AE2B"/>
<path d="M203.749 281.42C203.749 283.607 200.976 289.38 198.789 289.38C196.602 289.38 193.829 283.607 193.829 281.42C193.829 279.233 196.602 277.46 198.789 277.46C200.976 277.46 203.749 279.233 203.749 281.42Z" fill="#F9AE2B"/>
</svg>
